<svg width="202" height="45" viewBox="0 0 202 45" fill="none" xmlns="http://www.w3.org/2000/svg">
<path d="M39.2815 38.929H19.1629C18.7661 38.929 18.4444 39.2506 18.4444 39.6475V41.7815C18.4444 42.1783 18.7661 42.5 19.1629 42.5H39.2815C39.6783 42.5 40 42.1783 40 41.7815V39.6475C40 39.2506 39.6783 38.929 39.2815 38.929Z" fill="url(#paint0_linear_160_226)"/>
<path d="M33.713 27.077V34.9017C33.713 35.0992 33.5513 35.2591 33.3537 35.2591H32.2759C32.0783 35.2591 31.9167 35.0992 31.9167 34.9017V26.5327C31.2628 26.4016 30.5874 26.3315 29.8958 26.3315H28.5486C27.857 26.3315 27.1816 26.4016 26.5278 26.5327V34.9017C26.5278 35.0992 26.3661 35.2591 26.1685 35.2591H25.0907C24.8931 35.2591 24.7315 35.0992 24.7315 34.9017V27.077C21.0436 28.5733 18.4444 32.1713 18.4444 36.3746C18.4444 36.7447 18.7462 37.0446 19.118 37.0446H39.3264C39.6982 37.0446 40 36.7447 40 36.3746C40 32.1713 37.4008 28.5733 33.713 27.077Z" fill="url(#paint1_linear_160_226)"/>
<path d="M22.6944 17.4111H19.7V14.4167H16.7074V17.4111H13.713V20.4037H16.7074V23.3981H19.7V20.4037H22.6944V17.4111Z" fill="#1D6ED8"/>
<path d="M5.85773 36.6423C2.08012 32.8647 0 27.8422 0 22.5C0 17.1578 2.08012 12.1354 5.85773 8.35773C9.63535 4.58012 14.6578 2.5 20 2.5C25.3422 2.5 30.3647 4.58012 34.1423 8.35773L31.261 11.239C28.2522 8.2302 24.2536 6.57401 20 6.57401C15.7464 6.57401 11.746 8.2302 8.739 11.239C5.73199 14.2478 4.07401 18.2464 4.07401 22.5C4.07401 26.7536 5.7302 30.754 8.739 33.761L5.85773 36.6423Z" fill="#1D6ED8"/>
<path d="M5.85773 36.6423C2.08012 32.8647 0 27.8422 0 22.5C0 17.1578 2.08012 12.1354 5.85773 8.35773C9.63535 4.58012 14.6578 2.5 20 2.5C25.3422 2.5 30.3647 4.58012 34.1423 8.35773L31.261 11.239C28.2522 8.2302 24.2536 6.57401 20 6.57401C15.7464 6.57401 11.746 8.2302 8.739 11.239C5.73199 14.2478 4.07401 18.2464 4.07401 22.5C4.07401 26.7536 5.7302 30.754 8.739 33.761L5.85773 36.6423Z" fill="#1D6ED8"/>
<path d="M114.719 2.7207C116.696 2.7207 118.132 3.81934 118.132 5.44531C118.132 7.05664 116.696 8.16992 114.719 8.15527C112.741 8.16992 111.335 7.05664 111.335 5.44531C111.335 3.81934 112.741 2.7207 114.719 2.7207ZM114.719 3.84863C113.532 3.84863 112.668 4.47852 112.683 5.44531C112.668 6.39746 113.532 7.02734 114.719 7.0127C115.935 7.02734 116.799 6.39746 116.799 5.44531C116.799 4.47852 115.935 3.84863 114.719 3.84863ZM121.325 2.13477V15.2451H119.948V2.13477H121.325ZM110.397 9.18066C112.814 9.18066 116.169 9.12207 119.04 8.69727L119.143 9.7373C117.949 9.96436 116.704 10.1035 115.495 10.1914V14.835H114.104V10.2646C112.829 10.3232 111.628 10.3306 110.588 10.3379L110.397 9.18066ZM133.568 2.12012V10.0742H132.177V7.21777H130.126V6.06055H132.177V2.12012H133.568ZM133.568 10.7188V15.084H124.911V10.7188H133.568ZM126.288 11.8174V13.9561H132.206V11.8174H126.288ZM130.331 3.42383V4.53711H122.641V3.42383H125.805V2.00293H127.182V3.42383H130.331ZM126.493 5.1377C128.295 5.1377 129.569 6.10449 129.569 7.48145C129.569 8.90234 128.295 9.8252 126.493 9.83984C124.691 9.8252 123.402 8.90234 123.402 7.48145C123.402 6.10449 124.691 5.1377 126.493 5.1377ZM126.493 6.20703C125.438 6.19238 124.735 6.70508 124.735 7.48145C124.735 8.28711 125.438 8.78516 126.493 8.78516C127.533 8.78516 128.236 8.28711 128.236 7.48145C128.236 6.70508 127.533 6.19238 126.493 6.20703ZM139.498 4.08301C139.498 5.92871 140.685 7.56934 142.677 8.21387L141.915 9.29785C140.472 8.77783 139.41 7.76709 138.839 6.45605C138.268 7.95752 137.125 9.12207 135.543 9.69336L134.796 8.58008C136.891 7.8623 138.106 6.11914 138.121 4.1416V2.85254H139.498V4.08301ZM145.782 2.12012V9.86914H144.391V5.92871H141.622V4.78613H144.391V2.12012H145.782ZM141.388 10.2354C144.142 10.2354 145.826 11.1436 145.826 12.7402C145.826 14.3223 144.142 15.2305 141.388 15.2158C138.634 15.2305 136.935 14.3223 136.949 12.7402C136.935 11.1436 138.634 10.2354 141.388 10.2354ZM141.388 11.3193C139.469 11.3193 138.326 11.832 138.326 12.7402C138.326 13.6191 139.469 14.1172 141.388 14.1172C143.307 14.1172 144.449 13.6191 144.449 12.7402C144.449 11.832 143.307 11.3193 141.388 11.3193ZM157.319 3.07227V4.2002H156.06V8.16992C156.616 8.12598 157.151 8.07471 157.671 8.00879L157.729 9.06348C155.21 9.45898 152.266 9.50293 150.156 9.50293L149.98 8.3457L151.577 8.33105V4.2002H150.347V3.07227H157.319ZM160.908 2.12012V10.1914H159.517V7.90625H157.51V6.79297H159.517V5.51855H157.51V4.40527H159.517V2.12012H160.908ZM156.514 10.4404C159.282 10.4404 160.952 11.3047 160.952 12.8428C160.952 14.3369 159.282 15.2305 156.514 15.2158C153.745 15.2305 152.061 14.3369 152.075 12.8428C152.061 11.3047 153.745 10.4404 156.514 10.4404ZM156.514 11.5244C154.58 11.5244 153.452 11.9932 153.452 12.8428C153.452 13.6777 154.58 14.1465 156.514 14.1465C158.433 14.1465 159.575 13.6777 159.575 12.8428C159.575 11.9932 158.433 11.5244 156.514 11.5244ZM152.925 8.31641C153.518 8.30176 154.119 8.27979 154.727 8.24316V4.2002H152.925V8.31641ZM172.404 2.12012V7.34961H174.44V8.50684H172.404V15.2305H171.013V2.12012H172.404ZM168.977 3.49707C168.962 7.29102 167.292 10.6748 162.971 12.8135L162.194 11.7295C165.483 10.0889 167.27 7.71582 167.556 4.6543H162.854V3.49707H168.977ZM188.248 2.13477V11.8027H186.856V8.38965H183.604C182.982 9.12939 182.03 9.57617 180.938 9.57617C178.961 9.57617 177.496 8.19922 177.496 6.26562C177.496 4.31738 178.961 2.94043 180.938 2.92578C182.022 2.93311 182.967 3.37988 183.59 4.1123H186.856V2.13477H188.248ZM188.6 13.8389V14.9668H179.723V10.792H181.114V13.8389H188.6ZM180.938 4.1709C179.708 4.1709 178.829 5.02051 178.829 6.26562C178.829 7.51074 179.708 8.3457 180.938 8.3457C182.125 8.3457 183.019 7.51074 183.019 6.26562C183.019 5.02051 182.125 4.1709 180.938 4.1709ZM184.205 5.24023C184.293 5.55518 184.352 5.89941 184.352 6.26562C184.352 6.61719 184.3 6.9541 184.205 7.26172H186.856V5.24023H184.205ZM201.502 8.50684V9.62012H189.52V8.50684H194.837V7.11523H191.014V2.7207H200.022V3.81934H192.391V6.00195H200.11V7.11523H196.185V8.50684H201.502ZM195.496 10.4697C198.323 10.4697 200.022 11.334 200.022 12.8574C200.022 14.3809 198.323 15.2305 195.496 15.2451C192.654 15.2305 190.94 14.3809 190.94 12.8574C190.94 11.334 192.654 10.4697 195.496 10.4697ZM195.496 11.5537C193.489 11.5537 192.347 12.0225 192.347 12.8574C192.347 13.6924 193.489 14.1611 195.496 14.1465C197.474 14.1611 198.631 13.6924 198.631 12.8574C198.631 12.0225 197.474 11.5537 195.496 11.5537ZM70.5081 20.8281V26.9453H73.3909V29.4297H70.5081V36.3672H67.5081V20.8281H70.5081ZM71.2816 39.3906V41.7812H56.68V34.7266H59.6566V39.3906H71.2816ZM59.5862 22.2109C62.8441 22.2109 65.3987 24.4609 65.3987 27.625C65.3987 30.7422 62.8441 33.0391 59.5862 33.0391C56.305 33.0391 53.7269 30.7422 53.7269 27.625C53.7269 24.4609 56.305 22.2109 59.5862 22.2109ZM59.5862 24.8125C57.9691 24.7891 56.6566 25.8438 56.68 27.625C56.6566 29.3594 57.9691 30.4375 59.5862 30.4375C61.2269 30.4375 62.4691 29.3594 62.4925 27.625C62.4691 25.8438 61.2269 24.7891 59.5862 24.8125ZM92.065 20.8516V36.4141H89.0884V28.7734H85.5962V26.3594H89.0884V20.8516H92.065ZM92.5806 39.3906V41.7812H77.9087V35.0547H80.9087V39.3906H92.5806ZM82.1509 25.0234C82.1509 27.4844 83.6509 30.1328 87.0494 31.2344L85.5728 33.6016C83.2056 32.8398 81.5884 31.2812 80.6509 29.3359C79.7134 31.4922 78.0142 33.2031 75.4947 34.0469L73.9712 31.6094C77.4869 30.5078 79.0806 27.7188 79.1041 25V24.6719H74.815V22.2812H86.3931V24.6719H82.1509V25.0234ZM106.544 22.375V23.7109C106.544 25.1875 106.544 27.3203 106.052 29.9688L103.122 29.6875C103.497 27.6367 103.591 26.0898 103.614 24.8125H95.575V22.375H106.544ZM101.247 27.2969V31.375C103.368 31.293 105.548 31.1289 107.552 30.8359L107.716 32.9922C103.286 33.8125 98.2703 33.8828 94.5672 33.9062L94.3094 31.5156C95.5047 31.5156 96.8523 31.5156 98.2703 31.4688V27.2969H101.247ZM111.77 20.8281V27.3203H114.348V29.8281H111.77V36.7891H108.7V20.8281H111.77ZM112.427 39.3906V41.7812H97.45V35.3594H100.45V39.3906H112.427ZM132.976 20.8281V42.2031H129.999V20.8281H132.976ZM126.366 22.6094V30.8359H119.335V34.75C122.581 34.7383 125.347 34.5508 128.476 34.0469L128.733 36.4609C125.218 37.0703 122.054 37.2109 118.163 37.2109H116.241V28.4688H123.319V25.0234H116.218V22.6094H126.366ZM149.183 25.6562C149.183 29.5703 150.964 33.5078 154.574 35.0312L152.816 37.4219C150.378 36.3203 148.691 34.1992 147.73 31.5625C146.757 34.4336 145.011 36.7539 142.41 37.9375L140.605 35.4531C144.332 33.8828 146.136 29.8047 146.16 25.6562V22.4688H149.183V25.6562ZM158.746 20.8281V42.2031H155.722V20.8281H158.746ZM172.615 23.6406C172.615 26.7578 175.381 30.1094 180.209 30.9297L178.896 33.4141C175.181 32.6758 172.416 30.5898 171.045 27.8359C169.627 30.5664 166.861 32.6641 163.17 33.4141L161.881 30.9297C166.615 30.0859 169.404 26.7344 169.427 23.6406V22.0938H172.615V23.6406ZM180.912 37.0703V39.5312H161.388V37.0703H180.912ZM190.867 22.0938V24.5078H185.594V26.1953H190.07V28.4922H185.594V30.3438C187.926 30.3086 189.625 30.2148 191.594 29.8984L191.898 32.2188C189.438 32.6406 187.398 32.7109 184.188 32.7109H182.734V22.0938H190.867ZM200.219 20.8281V33.5547H197.383V20.8281H200.219ZM195.977 21.1562V33.4141H193.141V28.3516H190.984V25.9609H193.141V21.1562H195.977ZM200.219 34.3984V41.9219H185.664V34.3984H200.219ZM188.641 36.7422V39.5312H197.266V36.7422H188.641Z" fill="white"/>
<defs>
<linearGradient id="paint0_linear_160_226" x1="6" y1="9.7" x2="41.1609" y2="13.1922" gradientUnits="userSpaceOnUse">
<stop stop-color="#1985DE"/>
<stop offset="1" stop-color="#66A8FF"/>
</linearGradient>
<linearGradient id="paint1_linear_160_226" x1="6" y1="9.7" x2="41.1609" y2="13.1922" gradientUnits="userSpaceOnUse">
<stop stop-color="#1985DE"/>
<stop offset="1" stop-color="#66A8FF"/>
</linearGradient>
</defs>
</svg>
