<svg width="40" height="40" viewBox="0 0 40 40" fill="none" xmlns="http://www.w3.org/2000/svg">
<path d="M39.2815 36.429H19.1629C18.7661 36.429 18.4444 36.7506 18.4444 37.1475V39.2815C18.4444 39.6783 18.7661 40 19.1629 40H39.2815C39.6783 40 40 39.6783 40 39.2815V37.1475C40 36.7506 39.6783 36.429 39.2815 36.429Z" fill="url(#paint0_linear_37_396)"/>
<path d="M33.713 24.577V32.4017C33.713 32.5992 33.5513 32.7591 33.3537 32.7591H32.2759C32.0783 32.7591 31.9167 32.5992 31.9167 32.4017V24.0327C31.2628 23.9016 30.5874 23.8315 29.8958 23.8315H28.5486C27.857 23.8315 27.1816 23.9016 26.5278 24.0327V32.4017C26.5278 32.5992 26.3661 32.7591 26.1685 32.7591H25.0907C24.8931 32.7591 24.7315 32.5992 24.7315 32.4017V24.577C21.0436 26.0733 18.4444 29.6713 18.4444 33.8746C18.4444 34.2447 18.7462 34.5446 19.118 34.5446H39.3264C39.6982 34.5446 40 34.2447 40 33.8746C40 29.6713 37.4008 26.0733 33.713 24.577Z" fill="url(#paint1_linear_37_396)"/>
<path d="M22.6944 14.9111H19.7V11.9167H16.7074V14.9111H13.713V17.9037H16.7074V20.8981H19.7V17.9037H22.6944V14.9111Z" fill="#1D6ED8"/>
<path d="M5.85773 34.1423C2.08012 30.3647 0 25.3422 0 20C0 14.6578 2.08012 9.63535 5.85773 5.85773C9.63535 2.08012 14.6578 0 20 0C25.3422 0 30.3647 2.08012 34.1423 5.85773L31.261 8.739C28.2522 5.7302 24.2536 4.07401 20 4.07401C15.7464 4.07401 11.746 5.7302 8.739 8.739C5.73199 11.7478 4.07401 15.7464 4.07401 20C4.07401 24.2536 5.7302 28.254 8.739 31.261L5.85773 34.1423Z" fill="#1D6ED8"/>
<path d="M5.85773 34.1423C2.08012 30.3647 0 25.3422 0 20C0 14.6578 2.08012 9.63535 5.85773 5.85773C9.63535 2.08012 14.6578 0 20 0C25.3422 0 30.3647 2.08012 34.1423 5.85773L31.261 8.739C28.2522 5.7302 24.2536 4.07401 20 4.07401C15.7464 4.07401 11.746 5.7302 8.739 8.739C5.73199 11.7478 4.07401 15.7464 4.07401 20C4.07401 24.2536 5.7302 28.254 8.739 31.261L5.85773 34.1423Z" fill="#1D6ED8"/>
<defs>
<linearGradient id="paint0_linear_37_396" x1="6" y1="7.2" x2="41.1609" y2="10.6922" gradientUnits="userSpaceOnUse">
<stop stop-color="#1985DE"/>
<stop offset="1" stop-color="#66A8FF"/>
</linearGradient>
<linearGradient id="paint1_linear_37_396" x1="6" y1="7.2" x2="41.1609" y2="10.6922" gradientUnits="userSpaceOnUse">
<stop stop-color="#1985DE"/>
<stop offset="1" stop-color="#66A8FF"/>
</linearGradient>
</defs>
</svg>
